<svg height="16" viewBox="0 0 4.2333332 4.2333335" width="16" xmlns="http://www.w3.org/2000/svg"><g fill="#fdfdfd" transform="translate(0 -292.76665)"><path d="m-.00000031 293.60008v3.02382h4.23333361v-3.02382zm.30238094.30238h3.62857177v2.41905h-3.62857177z"/><g><path d="m1.46150761 294.20483852h.45357144v.45357144h-.45357144z"/><path d="m2.31825371 294.20483852h.45357144v.45357144h-.45357144z"/><path d="m3.17499992 294.20483852h.45357144v.45357144h-.45357144z"/><path d="m .60476154 294.88519284h.45357144v.45357144h-.45357144z"/><path d="m1.46150761 294.88519284h.45357144v.45357144h-.45357144z"/><path d="m2.31825371 294.88519284h.45357144v.45357144h-.45357144z"/><path d="m3.17499992 294.88519284h.45357144v.45357144h-.45357144z"/><path d="m .60476154 295.56553573h.45357144v.45357144h-.45357144z"/><path d="m1.46150761 295.56553573h.45357144v.45357144h-.45357144z"/></g><path d="m-.00000031 293.11639v.39274h4.23333361v-.39274z"/></g></svg>